# Wavefront OBJ file automatically generated by Tiled2Unity

# Vertices (Count = 12)
v -35 -37 0
v -36 -37 0
v -36 -36 0
v -35 -36 0
v -37 -37 0
v -37 -36 0
v -38 -37 0
v -38 -36 0
v -35 -38 0
v -36 -38 0
v -37 -38 0
v -38 -38 0

# Texture cooridinates (Count = 4)
vt 0.6154222 0.5385179
vt 0.9230394 0.5385179
vt 0.9230394 0.9999437
vt 0.6154222 0.9999437

# Normal
vn 0 0 -1

# Groups (Count = 1)

g mesh_0001
f 1/1/1 2/2/1 3/3/1 4/4/1
f 2/1/1 5/2/1 6/3/1 3/4/1
f 5/1/1 7/2/1 8/3/1 6/4/1
f 9/1/1 10/2/1 2/3/1 1/4/1
f 10/1/1 11/2/1 5/3/1 2/4/1
f 11/1/1 12/2/1 7/3/1 5/4/1

